HIERARCHY
ROOT hip
{
	OFFSET 0.000000 0.000000 0.000000 
	CHANNELS 6 Xposition Yposition Zposition Xrotation Zrotation Yrotation
	JOINT abdomen
	{
		OFFSET 0.000000 3.402643 0.000000 
		CHANNELS 3 Xrotation Zrotation Yrotation
		JOINT chest
		{
			OFFSET 0.000000 8.438565 -0.680529 
			CHANNELS 3 Xrotation Zrotation Yrotation
			JOINT neck
			{
				OFFSET 0.000000 10.207942 -0.272212 
				CHANNELS 3 Xrotation Zrotation Yrotation
				JOINT head
				{
					OFFSET 0.000000 3.130431 0.000000 
					CHANNELS 3 Xrotation Zrotation Yrotation
					End Site
					{
						OFFSET 0.000000 3.130435 0.000000 
					}
				}
			}
			JOINT lCollar
			{
				OFFSET 3.470700 6.669187 -0.816635 
				CHANNELS 3 Yrotation Zrotation Xrotation
				JOINT lShldr
				{
					OFFSET 3.198488 0.000000 0.000000 
					CHANNELS 3 Zrotation Yrotation Xrotation
					JOINT lForeArm
					{
						OFFSET 10.139888 0.000000 0.000000 
						CHANNELS 3 Yrotation Zrotation Xrotation
						JOINT lHand
						{
							OFFSET 8.370511 0.000000 0.000000 
							CHANNELS 3 Zrotation Yrotation Xrotation
							End Site
							{
								OFFSET 4.083176 0.000000 0.000000 
							}
						}
					}
				}
			}
			JOINT rCollar
			{
				OFFSET -3.470700 6.669187 -0.816635 
				CHANNELS 3 Yrotation Zrotation Xrotation
				JOINT rShldr
				{
					OFFSET -3.198488 0.000000 0.000000 
					CHANNELS 3 Zrotation Yrotation Xrotation
					JOINT rForeArm
					{
						OFFSET -10.139888 0.000000 0.000000 
						CHANNELS 3 Yrotation Zrotation Xrotation
						JOINT rHand
						{
							OFFSET -8.370511 0.000000 0.000000 
							CHANNELS 3 Zrotation Yrotation Xrotation
							End Site
							{
								OFFSET -4.083176 0.000000 0.000000 
							}
						}
					}
				}
			}
		}
	}
	JOINT lThigh
	{
		OFFSET 5.308129 -1.633274 1.361059 
		CHANNELS 3 Xrotation Zrotation Yrotation
		JOINT lShin
		{
			OFFSET -2.041588 -20.007561 0.000000 
			CHANNELS 3 Xrotation Zrotation Yrotation
			JOINT lFoot
			{
				OFFSET 0.000000 -19.190928 -1.224953 
				CHANNELS 3 Xrotation Yrotation Zrotation
				End Site
				{
					OFFSET 0.000000 -2.449906 4.627600 
				}
			}
		}
	}
	JOINT rThigh
	{
		OFFSET -5.308129 -1.633274 1.361059 
		CHANNELS 3 Xrotation Zrotation Yrotation
		JOINT rShin
		{
			OFFSET 2.041588 -20.007561 0.000000 
			CHANNELS 3 Xrotation Zrotation Yrotation
			JOINT rFoot
			{
				OFFSET 0.000000 -19.190928 -1.224953 
				CHANNELS 3 Xrotation Yrotation Zrotation
				End Site
				{
					OFFSET 0.000000 -2.449906 4.627600 
				}
			}
		}
	}
}
MOTION
Frames: 10
Frame Time: 0.011111
30.325346 52.130516 -83.837379 9.890182 4.584945 -26.293423 44.909431 -8.112929 -4.229102 -28.329662 4.293919 -0.070744 -20.651587 -3.728014 -0.054273 35.814003 9.803960 1.376691 2.323164 -4.228199 1.777795 -65.359741 -55.348251 0.189601 -42.952534 5.747959 5.447698 8.524705 12.647240 -57.835339 -4.757854 4.715322 2.362459 71.793228 27.320557 15.293942 51.272820 -7.988571 8.680220 -8.534408 -12.637552 29.935408 -12.191018 3.650077 0.128001 36.702984 -4.888294 -5.721769 -37.020706 -0.003274 -0.421407 -31.000109 -5.888092 6.497656 65.287697 2.100868 8.562899 -23.296959 -5.523614 0.240970 
30.242029 52.075581 -83.355667 9.857776 4.760070 -26.262417 45.066845 -8.059753 -4.667610 -28.400309 4.503368 -0.196022 -20.571526 -3.781385 0.017779 35.639027 9.865695 1.528293 2.323164 -4.228199 1.777795 -65.075249 -55.644714 1.571329 -43.391644 5.883333 5.596748 8.524705 12.647240 -56.897839 -4.757854 4.715322 2.362459 71.841827 27.298426 14.641774 50.979015 -7.921490 8.550685 -8.534408 -12.637552 29.505716 -11.588082 3.172650 -0.229184 36.671230 -4.913640 -5.707623 -37.480263 0.179856 -0.199321 -31.848711 -5.888452 6.553983 64.859421 2.168056 8.503576 -24.071327 -4.578677 0.457090 
30.151302 52.016029 -82.854515 9.771708 4.824369 -26.350700 45.282516 -7.950716 -5.021023 -28.283548 4.576832 -0.296003 -20.801908 -3.749261 0.099615 35.677200 9.870708 1.697865 2.323164 -4.228199 1.777795 -64.605301 -56.167976 2.881493 -43.740086 6.000487 5.737729 8.524705 12.647240 -55.774796 -4.757854 4.715322 2.362459 72.000038 27.417240 13.920219 50.728298 -7.868840 8.448947 -8.534408 -12.637552 29.007669 -10.779253 2.821358 -0.312519 36.543430 -4.913547 -5.686708 -37.800797 0.488881 0.093328 -32.519535 -5.780799 6.638369 64.341423 2.218006 8.484198 -24.907995 -3.393513 0.797955 
30.057182 51.942276 -82.329910 9.721018 4.762966 -26.738943 45.403774 -7.849975 -5.159675 -28.107443 4.598555 -0.344081 -21.185320 -3.406287 0.186698 36.055248 9.384414 1.818976 2.323164 -4.228199 1.777795 -64.151688 -56.593258 3.957703 -44.303101 6.169342 5.943147 8.524705 12.647240 -54.593147 -4.757854 4.715322 2.362459 72.060577 27.423817 13.556167 50.581810 -7.837596 8.398450 -8.534408 -12.637552 28.841652 -9.903100 2.565612 -0.387411 36.384418 -4.927635 -5.666849 -38.194290 0.906775 0.480828 -33.197590 -5.419818 6.805873 63.746258 2.286251 8.430776 -25.316942 -3.413069 0.703859 
29.952566 51.919437 -81.784630 9.686250 4.867368 -26.940069 45.467026 -7.809436 -5.458726 -28.108704 4.724397 -0.430836 -21.363382 -3.028925 0.230789 36.282513 8.890518 1.875340 2.323164 -4.228199 1.777795 -63.793972 -56.861057 5.037249 -44.785755 6.316656 6.123952 8.524705 12.647240 -53.782604 -4.757854 4.715322 2.362459 72.016251 27.210939 13.448251 50.550785 -7.831077 8.378572 -8.534408 -12.637552 29.085796 -9.078221 2.137482 -0.684892 36.146675 -4.943046 -5.631475 -38.544083 1.306083 0.868692 -34.154949 -5.273551 6.760433 63.023739 2.387200 8.376302 -24.908791 -5.525932 -0.064525 
29.844563 51.862965 -81.272667 9.737387 4.988908 -27.147362 45.493942 -7.826794 -5.667544 -28.011639 4.816463 -0.474932 -21.628050 -2.767681 0.223327 36.361347 8.596049 1.840584 2.323164 -4.228199 1.777795 -63.379845 -57.266167 6.075167 -45.063469 6.400637 6.227234 8.524705 12.647240 -52.893932 -4.757854 4.715322 2.362459 72.156601 27.213285 12.897545 50.508671 -7.821509 8.369082 -8.534408 -12.637552 29.056503 -8.353238 1.785386 -0.896014 35.879337 -4.946791 -5.628700 -38.778606 1.569709 1.095473 -34.801147 -5.156178 7.184979 62.437492 2.432928 8.337807 -26.280197 -2.899078 0.778107 
29.724209 51.822231 -80.766891 9.879797 5.090322 -27.488668 45.630966 -8.017002 -5.567770 -27.815500 4.805265 -0.407521 -21.992962 -2.704900 0.146661 36.108730 8.755904 1.697693 2.323164 -4.228199 1.777795 -62.991001 -58.071381 7.336428 -45.650417 6.573292 6.446233 8.524705 12.647240 -51.595100 -4.757854 4.715322 2.362459 72.455742 27.490871 11.985327 50.466763 -7.811293 8.348541 -8.534408 -12.637552 28.880716 -7.645624 1.601286 -0.700469 35.530109 -4.991705 -5.572471 -38.849823 1.722306 1.250333 -35.754826 -4.834395 7.669749 61.695065 2.533914 8.279729 -26.914063 -2.102569 1.028080 
29.595837 51.783966 -80.272530 9.911539 5.343463 -27.613766 45.774460 -8.135556 -5.969581 -27.827862 5.058569 -0.501866 -21.187550 -3.022154 0.206621 34.796043 9.215108 1.838191 2.323164 -4.228199 1.777795 -62.778576 -58.405773 8.133635 -46.691994 6.862053 6.843683 8.524705 12.647240 -50.882214 -4.757854 4.715322 2.362459 72.441147 27.423166 11.570244 50.404320 -7.799319 8.328360 -8.534408 -12.637552 28.841652 -6.880943 1.249025 -0.276300 35.212963 -5.011441 -5.520871 -38.700382 2.014949 1.408686 -36.731911 -4.804732 7.993907 60.961952 2.613486 8.228297 -27.485662 -1.993561 1.012339 
29.470549 51.742924 -79.756866 9.873089 5.571701 -27.752232 45.941006 -8.207533 -6.386192 -27.868719 5.212141 -0.605154 -20.746555 -3.074430 0.224822 34.136318 9.317364 1.893434 2.323164 -4.228199 1.777795 -62.431248 -58.702503 8.734877 -47.447609 7.068892 7.146312 8.524705 12.647240 -50.540417 -4.757854 4.715322 2.362459 72.491783 27.283504 11.143070 50.415203 -7.802987 8.327711 -8.534408 -12.637552 28.958841 -6.038512 0.828725 -0.185082 34.857204 -5.015298 -5.490892 -38.647495 2.286189 1.575462 -37.577126 -4.794875 8.308022 60.102631 2.706614 8.134790 -27.867378 -1.974317 0.950236 
29.343716 51.725643 -79.226089 10.032655 5.559108 -27.793867 45.941570 -7.918143 -6.575974 -27.869865 5.317678 -0.698397 -20.645880 -3.091756 0.281778 34.089878 9.281740 2.001609 2.323164 -4.228199 1.777795 -61.956749 -59.166534 9.215460 -47.841602 7.171511 7.295082 8.524705 12.647240 -50.042370 -4.757854 4.715322 2.362459 72.470634 27.118317 10.938397 50.488331 -7.819206 8.358334 -8.534408 -12.637552 29.300640 -5.347244 0.692270 -0.574417 34.418903 -5.054485 -5.434388 -38.680626 2.390393 1.652115 -38.351959 -4.522180 8.587844 59.173622 2.837089 8.054705 -28.195194 -1.832541 0.962578 
